<svg width="248" xmlns="http://www.w3.org/2000/svg" height="79" id="screenshot-a0ea147f-96ec-80cb-8006-1f26ab60f567" viewBox="0 0 248 79" xmlns:xlink="http://www.w3.org/1999/xlink" fill="none" version="1.1"><g id="shape-a0ea147f-96ec-80cb-8006-1f26ab60f567" xml:space="preserve" rx="0" ry="0" style="fill: rgb(0, 0, 0);"><g id="shape-a0ea147f-96ec-80cb-8006-1f26ab624aab" style="display: none;"><g class="fills" id="fills-a0ea147f-96ec-80cb-8006-1f26ab624aab"><rect width="248" height="79" x="0" transform="matrix(1.000000, 0.000000, 0.000000, 1.000000, 0.000000, 0.000000)" style="fill-rule: evenodd; clip-rule: evenodd; stroke-linejoin: round; stroke-miterlimit: 2; fill: none;" ry="0" fill="none" rx="0" y="0"/></g></g><g id="shape-a0ea147f-96ec-80cb-8006-1f26ab635e4b"><g class="fills" id="fills-a0ea147f-96ec-80cb-8006-1f26ab635e4b"><path d="M132.042,57.558C129.396,57.179,126.873,57.797,124.382,57.336C124.229,57.308,124.095,57.163,123.989,57.095C124.068,56.784,124.064,56.513,124.157,56.471C126.467,55.421,126.603,53.401,126.579,51.148C126.506,44.389,126.520,37.628,126.569,30.868C126.585,28.762,126.505,26.812,124.366,25.729C124.165,25.628,124.092,25.255,124.002,25.089C124.124,24.639,124.360,24.467,124.664,24.472C129.800,24.565,134.951,24.053,140.070,24.799C141.533,25.013,142.982,25.349,144.372,25.932C151.115,28.758,154.836,35.210,154.061,42.782C153.299,50.227,148.181,55.811,141.085,57.088C138.127,57.620,135.148,57.229,132.042,57.558ZM134.101,55.751C134.843,55.753,135.585,55.761,136.327,55.757C141.446,55.726,145.251,52.847,146.888,47.793C147.985,44.402,148.139,40.886,147.618,37.434C146.927,32.858,145.064,28.947,140.462,27.200C138.384,26.411,136.229,26.358,134.054,26.312C132.550,26.280,132.073,26.958,132.079,28.450C132.117,36.860,132.111,45.269,132.080,53.679C132.075,54.974,132.460,55.737,134.101,55.751ZZ" style="fill-rule: nonzero; clip-rule: evenodd; stroke-linejoin: round; stroke-miterlimit: 2; fill: rgb(27, 71, 56);"/></g></g><g id="shape-a0ea147f-96ec-80cb-8006-1f26ab645782"><g class="fills" id="fills-a0ea147f-96ec-80cb-8006-1f26ab645782"><path d="M93.473,55.695C91.310,52.534,89.790,49.141,88.067,45.869C87.232,44.284,86.363,42.785,84.499,42.281C83.381,41.979,82.727,42.119,82.744,43.530C82.781,46.670,82.777,49.812,82.763,52.954C82.757,54.451,83.460,55.397,84.745,55.964C85.108,56.124,85.519,56.287,85.477,56.820C85.442,57.266,85.112,57.410,84.753,57.406C81.503,57.368,78.249,57.616,75.003,57.280C74.920,57.272,74.850,57.121,74.773,57.034C74.631,56.621,74.800,56.310,75.147,56.165C76.957,55.410,77.228,53.858,77.222,52.090C77.200,44.803,77.191,37.515,77.219,30.228C77.226,28.346,76.997,26.669,75.121,25.764C74.796,25.608,74.624,25.281,74.785,24.743C74.893,24.684,75.083,24.491,75.270,24.493C80.289,24.551,85.322,24.065,90.324,24.811C92.443,25.127,94.451,25.807,96.129,27.245C100.551,31.034,99.321,37.740,93.760,40.365C92.677,40.876,91.442,40.995,90.277,41.869C92.546,42.865,93.466,44.937,94.550,46.884C95.636,48.833,96.762,50.760,97.920,52.664C98.780,54.079,99.773,55.372,101.380,55.979C101.792,56.135,102.255,56.344,102.159,56.972C99.827,58.112,95.302,57.490,93.473,55.695ZM90.456,39.264C91.658,38.472,92.548,37.404,92.876,35.953C94.479,28.873,89.827,25.825,84.110,26.222C83.162,26.287,82.742,26.903,82.748,27.907C82.766,31.637,82.767,35.367,82.741,39.096C82.735,40.081,83.135,40.457,84.068,40.483C86.198,40.544,88.292,40.463,90.456,39.264ZZ" style="fill-rule: nonzero; clip-rule: evenodd; stroke-linejoin: round; stroke-miterlimit: 2; fill: rgb(27, 71, 56);"/></g></g><g id="shape-a0ea147f-96ec-80cb-8006-1f26ab652f6b"><g class="fills" id="fills-a0ea147f-96ec-80cb-8006-1f26ab652f6b"><path d="M216.957,27.225C221.922,33.869,226.811,40.411,231.701,46.954C231.851,46.911,232.000,46.869,232.150,46.827C232.150,45.795,232.152,44.762,232.150,43.730C232.143,39.996,232.142,36.262,232.127,32.528C232.115,29.711,231.857,27.017,228.858,25.735C228.586,25.620,228.459,25.324,228.490,24.966C228.728,24.325,229.305,24.451,229.790,24.447C231.847,24.427,233.904,24.430,235.961,24.445C236.457,24.448,237.097,24.320,237.292,24.960C237.494,25.621,236.905,25.854,236.459,26.112C234.101,27.477,234.109,29.920,234.083,32.194C233.998,39.720,234.048,47.248,234.046,54.776C234.046,55.072,234.077,55.373,234.040,55.664C233.948,56.384,234.385,57.384,233.489,57.718C232.606,58.048,232.228,57.089,231.792,56.516C227.260,50.562,222.751,44.591,218.228,38.630C216.573,36.450,214.896,34.286,213.236,32.123C212.547,32.458,212.786,33.000,212.785,33.407C212.768,39.275,212.788,45.143,212.769,51.011C212.762,53.047,213.333,54.735,215.101,55.831C215.487,56.070,215.960,56.323,215.824,56.906C215.678,57.528,215.121,57.444,214.689,57.422C212.393,57.303,210.068,57.740,207.897,57.311C207.632,56.558,207.874,56.224,208.221,55.988C210.411,54.497,210.795,52.160,210.815,49.748C210.870,43.288,210.802,36.826,210.854,30.366C210.870,28.436,209.727,27.360,208.499,26.279C208.042,25.877,207.307,25.760,207.262,24.943C207.619,24.266,208.250,24.463,208.790,24.446C209.761,24.415,210.751,24.562,211.700,24.411C214.087,24.034,215.798,24.896,216.957,27.225ZZ" style="fill-rule: nonzero; clip-rule: evenodd; stroke-linejoin: round; stroke-miterlimit: 2; fill: rgb(27, 71, 56);"/></g></g><g id="shape-a0ea147f-96ec-80cb-8006-1f26ab662b24"><g class="fills" id="fills-a0ea147f-96ec-80cb-8006-1f26ab662b24"><path d="M54.196,24.437C58.019,24.423,61.676,24.580,65.311,24.043C65.802,23.970,66.488,23.759,66.599,24.487C67.056,27.490,67.427,30.506,67.825,33.482C66.600,33.848,66.394,33.060,66.210,32.523C64.410,27.277,60.717,25.424,55.602,26.041C55.320,26.075,55.026,26.090,54.747,26.049C53.055,25.797,52.565,26.649,52.602,28.284C52.675,31.542,52.654,34.803,52.612,38.062C52.592,39.563,53.138,40.272,54.644,40.094C56.060,39.926,57.499,39.920,58.901,39.678C60.535,39.397,61.658,38.337,62.337,36.768C62.528,36.328,62.783,35.870,63.339,35.978C63.944,36.095,63.887,36.665,63.889,37.123C63.903,39.612,63.906,42.101,63.890,44.590C63.886,45.098,63.974,45.745,63.276,45.871C62.712,45.973,62.531,45.454,62.294,45.050C60.604,42.158,56.397,40.627,53.367,41.761C52.750,41.992,52.643,42.460,52.641,43.013C52.630,46.628,52.633,50.243,52.618,53.858C52.614,54.782,53.033,55.254,53.903,55.433C56.396,55.948,58.919,55.985,61.395,55.573C64.178,55.108,65.634,52.776,67.159,50.605C67.611,49.961,67.843,48.573,68.893,49.123C69.736,49.565,68.965,50.617,68.816,51.379C68.474,53.118,68.023,54.836,67.730,56.583C67.569,57.542,67.207,57.898,66.258,57.792C59.763,57.066,53.245,57.609,46.741,57.424C46.105,57.406,45.198,57.777,44.920,56.915C44.647,56.065,45.599,55.989,46.075,55.647C46.907,55.049,47.241,54.183,47.242,53.199C47.252,45.081,47.249,36.962,47.223,28.844C47.220,27.709,46.684,26.815,45.762,26.172C45.317,25.861,44.659,25.703,44.831,24.437C47.847,24.437,50.936,24.437,54.196,24.437ZZ" style="fill-rule: nonzero; clip-rule: evenodd; stroke-linejoin: round; stroke-miterlimit: 2; fill: rgb(27, 71, 56);"/></g></g><g id="shape-a0ea147f-96ec-80cb-8006-1f26ab67109e"><g class="fills" id="fills-a0ea147f-96ec-80cb-8006-1f26ab67109e"><path d="M175.891,57.476C175.028,57.521,174.263,57.750,173.727,57.016C173.739,56.862,173.707,56.679,173.763,56.643C176.820,54.677,177.774,51.352,178.928,48.138C181.018,42.313,183.150,36.505,185.262,30.689C185.786,29.245,186.226,27.787,186.245,26.213C186.254,25.422,185.754,24.196,187.126,24.152C188.441,24.109,190.049,23.434,190.766,25.449C192.229,29.557,193.743,33.645,195.231,37.743C196.960,42.507,198.679,47.274,200.417,52.033C201.049,53.766,201.747,55.456,203.558,56.268C203.817,56.384,203.932,56.703,203.722,57.315L193.066,57.315C192.873,56.528,193.176,56.255,193.578,56.124C195.481,55.505,195.389,54.081,194.892,52.552C194.364,50.926,193.724,49.339,193.193,47.715C192.845,46.649,192.197,46.271,191.132,46.291C188.392,46.343,185.650,46.343,182.910,46.296C181.762,46.277,181.106,46.715,180.806,47.890C180.426,49.375,179.863,50.812,179.523,52.304C179.146,53.956,179.380,55.396,181.282,55.934C181.711,56.055,182.168,56.259,182.118,57.254C180.155,57.643,178.075,57.325,175.891,57.476ZM187.591,32.070C187.430,31.779,187.378,31.361,186.724,31.451C186.020,33.289,185.258,35.197,184.558,37.129C183.720,39.443,182.934,41.778,182.122,44.113C184.042,44.659,190.231,44.567,191.631,43.958C190.646,39.962,188.992,36.186,187.591,32.070ZZ" style="fill-rule: nonzero; clip-rule: evenodd; stroke-linejoin: round; stroke-miterlimit: 2; fill: rgb(27, 71, 56);"/></g></g><g id="shape-a0ea147f-96ec-80cb-8006-1f26ab67404f"><g class="fills" id="fills-a0ea147f-96ec-80cb-8006-1f26ab67404f"><path d="M18.721,27.290C18.553,28.471,18.969,29.402,19.342,30.323C21.817,36.441,24.313,42.549,26.807,48.658C26.960,49.034,27.155,49.390,27.466,50.037C27.826,49.283,28.128,48.749,28.345,48.180C30.439,42.668,32.526,37.153,34.594,31.630C34.861,30.917,35.059,30.166,35.201,29.414C35.494,27.857,35.174,26.588,33.555,25.983C33.140,25.827,32.682,25.636,32.628,24.616C35.455,24.279,38.261,24.432,41.272,24.537C41.034,25.150,41.015,25.396,40.904,25.456C38.062,26.986,37.076,29.831,36.021,32.679C33.254,40.144,30.419,47.581,27.608,55.028C27.420,55.524,27.226,56.019,27.004,56.499C26.671,57.217,26.258,57.872,25.361,57.819C24.526,57.769,24.247,57.058,23.980,56.411C21.887,51.346,19.806,46.277,17.733,41.205C16.172,37.386,14.631,33.559,13.074,29.739C12.424,28.143,11.721,26.587,10.099,25.762C9.786,25.602,9.573,25.311,9.714,24.674L20.546,24.674C20.423,26.087,19.001,26.137,18.721,27.290ZZ" style="fill-rule: nonzero; clip-rule: evenodd; stroke-linejoin: round; stroke-miterlimit: 2; fill: rgb(27, 71, 56);"/></g></g><g id="shape-a0ea147f-96ec-80cb-8006-1f26ab683880" style="display: none;"><g class="fills" id="fills-a0ea147f-96ec-80cb-8006-1f26ab683880"><path d="M155.386,74.844C125.724,74.842,96.234,74.845,66.744,74.807C65.846,74.806,64.252,75.425,64.215,73.933C64.177,72.402,65.785,72.954,66.686,72.953C104.349,72.915,142.011,72.908,179.674,72.938C180.609,72.939,182.297,72.283,182.269,73.960C182.244,75.467,180.626,74.802,179.732,74.808C171.674,74.866,163.616,74.843,155.386,74.844ZZ" style="fill-rule: nonzero; clip-rule: evenodd; stroke-linejoin: round; stroke-miterlimit: 2; fill: rgb(27, 71, 56);"/></g></g><g id="shape-a0ea147f-96ec-80cb-8006-1f26ab689216"><g class="fills" id="fills-a0ea147f-96ec-80cb-8006-1f26ab689216"><path d="M161.516,43.770C161.517,39.210,161.490,34.827,161.533,30.445C161.551,28.579,161.379,26.885,159.542,25.914C159.190,25.729,158.926,25.377,159.046,24.873C159.245,24.395,159.680,24.449,160.066,24.447C162.806,24.437,165.547,24.432,168.287,24.444C168.776,24.447,169.410,24.292,169.585,24.983C169.729,25.552,169.246,25.813,168.834,26.025C167.486,26.718,167.043,27.896,167.046,29.380C167.059,37.138,167.049,44.896,167.052,52.654C167.053,54.099,167.349,55.365,168.862,55.933C169.299,56.097,169.720,56.411,169.522,56.998C169.360,57.477,168.891,57.440,168.496,57.447C165.758,57.492,163.019,57.543,160.281,57.556C159.795,57.559,159.172,57.598,159.018,56.916C158.882,56.318,159.400,56.106,159.787,55.888C161.107,55.146,161.514,53.948,161.505,52.476C161.487,49.634,161.510,46.791,161.516,43.770ZZ" style="fill-rule: nonzero; clip-rule: evenodd; stroke-linejoin: round; stroke-miterlimit: 2; fill: rgb(27, 71, 56);"/></g></g><g id="shape-a0ea147f-96ec-80cb-8006-1f26ab691980"><g class="fills" id="fills-a0ea147f-96ec-80cb-8006-1f26ab691980"><path d="M112.167,24.436C114.075,24.511,115.832,24.274,117.473,24.580C117.824,25.474,117.362,25.788,116.903,26.016C115.453,26.733,115.049,28.059,115.045,29.538C115.019,37.235,115.025,44.931,115.039,52.628C115.042,54.080,115.510,55.291,116.902,55.936C117.257,56.101,117.631,56.307,117.643,56.805C116.487,57.702,108.193,57.737,107.073,56.861C107.091,56.747,107.077,56.558,107.134,56.531C109.980,55.190,109.698,52.568,109.685,50.006C109.652,43.613,109.640,37.218,109.692,30.825C109.710,28.700,109.533,26.783,107.403,25.738C107.144,25.611,107.033,25.300,107.105,24.705C108.646,24.148,110.348,24.560,112.167,24.436ZZ" style="fill-rule: nonzero; clip-rule: evenodd; stroke-linejoin: round; stroke-miterlimit: 2; fill: rgb(27, 71, 56);"/></g></g><g id="shape-a0ea147f-96ec-80cb-8006-1f26ab696e53"><g class="fills" id="fills-a0ea147f-96ec-80cb-8006-1f26ab696e53"><path d="M129.964,5.009C130.952,4.773,131.215,5.055,131.042,6.000C130.208,10.575,128.260,14.389,124.243,16.773C121.297,18.522,118.003,19.203,114.507,20.239C114.764,17.343,115.511,14.967,116.852,12.821C118.684,9.889,121.253,7.877,124.443,6.762C126.225,6.139,128.039,5.613,129.964,5.009ZZ" style="fill-rule: nonzero; clip-rule: evenodd; stroke-linejoin: round; stroke-miterlimit: 2; fill: rgb(27, 71, 56);"/></g></g></g></svg>